# xmcd
#
# Track frame offsets:
#	150
#	16083
#	36466
#	52147
#	70452
#	95015
#	113843
#	129627
#	146588
#	166490
#	183265
#	200792
#
# Disc length: 3197 seconds
#
# Revision: 0
# Processed by: cddbd v1.5.2PL0 Copyright (c) Steve Scherf et al.
# Submitted via: dBpowerAMP V4.0
#
DISCID=b70c7b0c
DTITLE=Robert Randolph and The Family Band - Colorblind
DYEAR=1900
DGENRE=Funk
TTITLE0=Ain't Nothing Wrong With That
TTITLE1=Deliver Me
TTITLE2=Diane
TTITLE3=Angels
TTITLE4=Jesus Is Just Alright (feat. Eric Clapton)
TTITLE5=Stronger (feat. Leela James)
TTITLE6=Thrill Of It
TTITLE7=Blessed
TTITLE8=Love Is The Only Way (feat. Dave Matthews, Leroi Moore and Rashawn Ross)
TTITLE9=Thankful 'n' Thoughtful
TTITLE10=Homecoming
TTITLE11=Do Yourself A Favor (Bonus Track)
EXTD=
EXTT0=
EXTT1=
EXTT2=
EXTT3=
EXTT4=
EXTT5=
EXTT6=
EXTT7=
EXTT8=
EXTT9=
EXTT10=
EXTT11=
PLAYORDER=
